<?xml version="1.0" encoding="UTF-8"?>
<svg version="1.1" baseProfile="tiny" xmlns="http://www.w3.org/2000/svg" width="150" height="150">
<rect shape-rendering="optimizeSpeed"  x="0" y="0" width="150" height="150" fill="white" />
<rect shape-rendering="optimizeSpeed"  x="17" y="17" width="4" height="4" fill="black" />
<rect shape-rendering="optimizeSpeed"  x="21" y="17" width="4" height="4" fill="black" />
<rect shape-rendering="optimizeSpeed"  x="25" y="17" width="4" height="4" fill="black" />
<rect shape-rendering="optimizeSpeed"  x="29" y="17" width="4" height="4" fill="black" />
<rect shape-rendering="optimizeSpeed"  x="33" y="17" width="4" height="4" fill="black" />
<rect shape-rendering="optimizeSpeed"  x="37" y="17" width="4" height="4" fill="black" />
<rect shape-rendering="optimizeSpeed"  x="41" y="17" width="4" height="4" fill="black" />
<rect shape-rendering="optimizeSpeed"  x="49" y="17" width="4" height="4" fill="black" />
<rect shape-rendering="optimizeSpeed"  x="53" y="17" width="4" height="4" fill="black" />
<rect shape-rendering="optimizeSpeed"  x="81" y="17" width="4" height="4" fill="black" />
<rect shape-rendering="optimizeSpeed"  x="85" y="17" width="4" height="4" fill="black" />
<rect shape-rendering="optimizeSpeed"  x="89" y="17" width="4" height="4" fill="black" />
<rect shape-rendering="optimizeSpeed"  x="93" y="17" width="4" height="4" fill="black" />
<rect shape-rendering="optimizeSpeed"  x="97" y="17" width="4" height="4" fill="black" />
<rect shape-rendering="optimizeSpeed"  x="105" y="17" width="4" height="4" fill="black" />
<rect shape-rendering="optimizeSpeed"  x="109" y="17" width="4" height="4" fill="black" />
<rect shape-rendering="optimizeSpeed"  x="113" y="17" width="4" height="4" fill="black" />
<rect shape-rendering="optimizeSpeed"  x="117" y="17" width="4" height="4" fill="black" />
<rect shape-rendering="optimizeSpeed"  x="121" y="17" width="4" height="4" fill="black" />
<rect shape-rendering="optimizeSpeed"  x="125" y="17" width="4" height="4" fill="black" />
<rect shape-rendering="optimizeSpeed"  x="129" y="17" width="4" height="4" fill="black" />
<rect shape-rendering="optimizeSpeed"  x="17" y="21" width="4" height="4" fill="black" />
<rect shape-rendering="optimizeSpeed"  x="41" y="21" width="4" height="4" fill="black" />
<rect shape-rendering="optimizeSpeed"  x="81" y="21" width="4" height="4" fill="black" />
<rect shape-rendering="optimizeSpeed"  x="89" y="21" width="4" height="4" fill="black" />
<rect shape-rendering="optimizeSpeed"  x="105" y="21" width="4" height="4" fill="black" />
<rect shape-rendering="optimizeSpeed"  x="129" y="21" width="4" height="4" fill="black" />
<rect shape-rendering="optimizeSpeed"  x="17" y="25" width="4" height="4" fill="black" />
<rect shape-rendering="optimizeSpeed"  x="25" y="25" width="4" height="4" fill="black" />
<rect shape-rendering="optimizeSpeed"  x="29" y="25" width="4" height="4" fill="black" />
<rect shape-rendering="optimizeSpeed"  x="33" y="25" width="4" height="4" fill="black" />
<rect shape-rendering="optimizeSpeed"  x="41" y="25" width="4" height="4" fill="black" />
<rect shape-rendering="optimizeSpeed"  x="49" y="25" width="4" height="4" fill="black" />
<rect shape-rendering="optimizeSpeed"  x="61" y="25" width="4" height="4" fill="black" />
<rect shape-rendering="optimizeSpeed"  x="65" y="25" width="4" height="4" fill="black" />
<rect shape-rendering="optimizeSpeed"  x="69" y="25" width="4" height="4" fill="black" />
<rect shape-rendering="optimizeSpeed"  x="73" y="25" width="4" height="4" fill="black" />
<rect shape-rendering="optimizeSpeed"  x="89" y="25" width="4" height="4" fill="black" />
<rect shape-rendering="optimizeSpeed"  x="105" y="25" width="4" height="4" fill="black" />
<rect shape-rendering="optimizeSpeed"  x="113" y="25" width="4" height="4" fill="black" />
<rect shape-rendering="optimizeSpeed"  x="117" y="25" width="4" height="4" fill="black" />
<rect shape-rendering="optimizeSpeed"  x="121" y="25" width="4" height="4" fill="black" />
<rect shape-rendering="optimizeSpeed"  x="129" y="25" width="4" height="4" fill="black" />
<rect shape-rendering="optimizeSpeed"  x="17" y="29" width="4" height="4" fill="black" />
<rect shape-rendering="optimizeSpeed"  x="25" y="29" width="4" height="4" fill="black" />
<rect shape-rendering="optimizeSpeed"  x="29" y="29" width="4" height="4" fill="black" />
<rect shape-rendering="optimizeSpeed"  x="33" y="29" width="4" height="4" fill="black" />
<rect shape-rendering="optimizeSpeed"  x="41" y="29" width="4" height="4" fill="black" />
<rect shape-rendering="optimizeSpeed"  x="49" y="29" width="4" height="4" fill="black" />
<rect shape-rendering="optimizeSpeed"  x="53" y="29" width="4" height="4" fill="black" />
<rect shape-rendering="optimizeSpeed"  x="61" y="29" width="4" height="4" fill="black" />
<rect shape-rendering="optimizeSpeed"  x="69" y="29" width="4" height="4" fill="black" />
<rect shape-rendering="optimizeSpeed"  x="85" y="29" width="4" height="4" fill="black" />
<rect shape-rendering="optimizeSpeed"  x="97" y="29" width="4" height="4" fill="black" />
<rect shape-rendering="optimizeSpeed"  x="105" y="29" width="4" height="4" fill="black" />
<rect shape-rendering="optimizeSpeed"  x="113" y="29" width="4" height="4" fill="black" />
<rect shape-rendering="optimizeSpeed"  x="117" y="29" width="4" height="4" fill="black" />
<rect shape-rendering="optimizeSpeed"  x="121" y="29" width="4" height="4" fill="black" />
<rect shape-rendering="optimizeSpeed"  x="129" y="29" width="4" height="4" fill="black" />
<rect shape-rendering="optimizeSpeed"  x="17" y="33" width="4" height="4" fill="black" />
<rect shape-rendering="optimizeSpeed"  x="25" y="33" width="4" height="4" fill="black" />
<rect shape-rendering="optimizeSpeed"  x="29" y="33" width="4" height="4" fill="black" />
<rect shape-rendering="optimizeSpeed"  x="33" y="33" width="4" height="4" fill="black" />
<rect shape-rendering="optimizeSpeed"  x="41" y="33" width="4" height="4" fill="black" />
<rect shape-rendering="optimizeSpeed"  x="49" y="33" width="4" height="4" fill="black" />
<rect shape-rendering="optimizeSpeed"  x="53" y="33" width="4" height="4" fill="black" />
<rect shape-rendering="optimizeSpeed"  x="57" y="33" width="4" height="4" fill="black" />
<rect shape-rendering="optimizeSpeed"  x="61" y="33" width="4" height="4" fill="black" />
<rect shape-rendering="optimizeSpeed"  x="69" y="33" width="4" height="4" fill="black" />
<rect shape-rendering="optimizeSpeed"  x="73" y="33" width="4" height="4" fill="black" />
<rect shape-rendering="optimizeSpeed"  x="77" y="33" width="4" height="4" fill="black" />
<rect shape-rendering="optimizeSpeed"  x="81" y="33" width="4" height="4" fill="black" />
<rect shape-rendering="optimizeSpeed"  x="93" y="33" width="4" height="4" fill="black" />
<rect shape-rendering="optimizeSpeed"  x="105" y="33" width="4" height="4" fill="black" />
<rect shape-rendering="optimizeSpeed"  x="113" y="33" width="4" height="4" fill="black" />
<rect shape-rendering="optimizeSpeed"  x="117" y="33" width="4" height="4" fill="black" />
<rect shape-rendering="optimizeSpeed"  x="121" y="33" width="4" height="4" fill="black" />
<rect shape-rendering="optimizeSpeed"  x="129" y="33" width="4" height="4" fill="black" />
<rect shape-rendering="optimizeSpeed"  x="17" y="37" width="4" height="4" fill="black" />
<rect shape-rendering="optimizeSpeed"  x="41" y="37" width="4" height="4" fill="black" />
<rect shape-rendering="optimizeSpeed"  x="53" y="37" width="4" height="4" fill="black" />
<rect shape-rendering="optimizeSpeed"  x="65" y="37" width="4" height="4" fill="black" />
<rect shape-rendering="optimizeSpeed"  x="73" y="37" width="4" height="4" fill="black" />
<rect shape-rendering="optimizeSpeed"  x="85" y="37" width="4" height="4" fill="black" />
<rect shape-rendering="optimizeSpeed"  x="89" y="37" width="4" height="4" fill="black" />
<rect shape-rendering="optimizeSpeed"  x="93" y="37" width="4" height="4" fill="black" />
<rect shape-rendering="optimizeSpeed"  x="105" y="37" width="4" height="4" fill="black" />
<rect shape-rendering="optimizeSpeed"  x="129" y="37" width="4" height="4" fill="black" />
<rect shape-rendering="optimizeSpeed"  x="17" y="41" width="4" height="4" fill="black" />
<rect shape-rendering="optimizeSpeed"  x="21" y="41" width="4" height="4" fill="black" />
<rect shape-rendering="optimizeSpeed"  x="25" y="41" width="4" height="4" fill="black" />
<rect shape-rendering="optimizeSpeed"  x="29" y="41" width="4" height="4" fill="black" />
<rect shape-rendering="optimizeSpeed"  x="33" y="41" width="4" height="4" fill="black" />
<rect shape-rendering="optimizeSpeed"  x="37" y="41" width="4" height="4" fill="black" />
<rect shape-rendering="optimizeSpeed"  x="41" y="41" width="4" height="4" fill="black" />
<rect shape-rendering="optimizeSpeed"  x="49" y="41" width="4" height="4" fill="black" />
<rect shape-rendering="optimizeSpeed"  x="57" y="41" width="4" height="4" fill="black" />
<rect shape-rendering="optimizeSpeed"  x="65" y="41" width="4" height="4" fill="black" />
<rect shape-rendering="optimizeSpeed"  x="73" y="41" width="4" height="4" fill="black" />
<rect shape-rendering="optimizeSpeed"  x="81" y="41" width="4" height="4" fill="black" />
<rect shape-rendering="optimizeSpeed"  x="89" y="41" width="4" height="4" fill="black" />
<rect shape-rendering="optimizeSpeed"  x="97" y="41" width="4" height="4" fill="black" />
<rect shape-rendering="optimizeSpeed"  x="105" y="41" width="4" height="4" fill="black" />
<rect shape-rendering="optimizeSpeed"  x="109" y="41" width="4" height="4" fill="black" />
<rect shape-rendering="optimizeSpeed"  x="113" y="41" width="4" height="4" fill="black" />
<rect shape-rendering="optimizeSpeed"  x="117" y="41" width="4" height="4" fill="black" />
<rect shape-rendering="optimizeSpeed"  x="121" y="41" width="4" height="4" fill="black" />
<rect shape-rendering="optimizeSpeed"  x="125" y="41" width="4" height="4" fill="black" />
<rect shape-rendering="optimizeSpeed"  x="129" y="41" width="4" height="4" fill="black" />
<rect shape-rendering="optimizeSpeed"  x="53" y="45" width="4" height="4" fill="black" />
<rect shape-rendering="optimizeSpeed"  x="61" y="45" width="4" height="4" fill="black" />
<rect shape-rendering="optimizeSpeed"  x="73" y="45" width="4" height="4" fill="black" />
<rect shape-rendering="optimizeSpeed"  x="81" y="45" width="4" height="4" fill="black" />
<rect shape-rendering="optimizeSpeed"  x="85" y="45" width="4" height="4" fill="black" />
<rect shape-rendering="optimizeSpeed"  x="93" y="45" width="4" height="4" fill="black" />
<rect shape-rendering="optimizeSpeed"  x="17" y="49" width="4" height="4" fill="black" />
<rect shape-rendering="optimizeSpeed"  x="21" y="49" width="4" height="4" fill="black" />
<rect shape-rendering="optimizeSpeed"  x="25" y="49" width="4" height="4" fill="black" />
<rect shape-rendering="optimizeSpeed"  x="29" y="49" width="4" height="4" fill="black" />
<rect shape-rendering="optimizeSpeed"  x="41" y="49" width="4" height="4" fill="black" />
<rect shape-rendering="optimizeSpeed"  x="49" y="49" width="4" height="4" fill="black" />
<rect shape-rendering="optimizeSpeed"  x="73" y="49" width="4" height="4" fill="black" />
<rect shape-rendering="optimizeSpeed"  x="85" y="49" width="4" height="4" fill="black" />
<rect shape-rendering="optimizeSpeed"  x="101" y="49" width="4" height="4" fill="black" />
<rect shape-rendering="optimizeSpeed"  x="113" y="49" width="4" height="4" fill="black" />
<rect shape-rendering="optimizeSpeed"  x="117" y="49" width="4" height="4" fill="black" />
<rect shape-rendering="optimizeSpeed"  x="121" y="49" width="4" height="4" fill="black" />
<rect shape-rendering="optimizeSpeed"  x="129" y="49" width="4" height="4" fill="black" />
<rect shape-rendering="optimizeSpeed"  x="25" y="53" width="4" height="4" fill="black" />
<rect shape-rendering="optimizeSpeed"  x="29" y="53" width="4" height="4" fill="black" />
<rect shape-rendering="optimizeSpeed"  x="33" y="53" width="4" height="4" fill="black" />
<rect shape-rendering="optimizeSpeed"  x="53" y="53" width="4" height="4" fill="black" />
<rect shape-rendering="optimizeSpeed"  x="73" y="53" width="4" height="4" fill="black" />
<rect shape-rendering="optimizeSpeed"  x="81" y="53" width="4" height="4" fill="black" />
<rect shape-rendering="optimizeSpeed"  x="85" y="53" width="4" height="4" fill="black" />
<rect shape-rendering="optimizeSpeed"  x="89" y="53" width="4" height="4" fill="black" />
<rect shape-rendering="optimizeSpeed"  x="93" y="53" width="4" height="4" fill="black" />
<rect shape-rendering="optimizeSpeed"  x="97" y="53" width="4" height="4" fill="black" />
<rect shape-rendering="optimizeSpeed"  x="101" y="53" width="4" height="4" fill="black" />
<rect shape-rendering="optimizeSpeed"  x="105" y="53" width="4" height="4" fill="black" />
<rect shape-rendering="optimizeSpeed"  x="109" y="53" width="4" height="4" fill="black" />
<rect shape-rendering="optimizeSpeed"  x="113" y="53" width="4" height="4" fill="black" />
<rect shape-rendering="optimizeSpeed"  x="129" y="53" width="4" height="4" fill="black" />
<rect shape-rendering="optimizeSpeed"  x="17" y="57" width="4" height="4" fill="black" />
<rect shape-rendering="optimizeSpeed"  x="29" y="57" width="4" height="4" fill="black" />
<rect shape-rendering="optimizeSpeed"  x="33" y="57" width="4" height="4" fill="black" />
<rect shape-rendering="optimizeSpeed"  x="41" y="57" width="4" height="4" fill="black" />
<rect shape-rendering="optimizeSpeed"  x="73" y="57" width="4" height="4" fill="black" />
<rect shape-rendering="optimizeSpeed"  x="81" y="57" width="4" height="4" fill="black" />
<rect shape-rendering="optimizeSpeed"  x="89" y="57" width="4" height="4" fill="black" />
<rect shape-rendering="optimizeSpeed"  x="97" y="57" width="4" height="4" fill="black" />
<rect shape-rendering="optimizeSpeed"  x="105" y="57" width="4" height="4" fill="black" />
<rect shape-rendering="optimizeSpeed"  x="109" y="57" width="4" height="4" fill="black" />
<rect shape-rendering="optimizeSpeed"  x="113" y="57" width="4" height="4" fill="black" />
<rect shape-rendering="optimizeSpeed"  x="121" y="57" width="4" height="4" fill="black" />
<rect shape-rendering="optimizeSpeed"  x="125" y="57" width="4" height="4" fill="black" />
<rect shape-rendering="optimizeSpeed"  x="21" y="61" width="4" height="4" fill="black" />
<rect shape-rendering="optimizeSpeed"  x="37" y="61" width="4" height="4" fill="black" />
<rect shape-rendering="optimizeSpeed"  x="61" y="61" width="4" height="4" fill="black" />
<rect shape-rendering="optimizeSpeed"  x="65" y="61" width="4" height="4" fill="black" />
<rect shape-rendering="optimizeSpeed"  x="69" y="61" width="4" height="4" fill="black" />
<rect shape-rendering="optimizeSpeed"  x="77" y="61" width="4" height="4" fill="black" />
<rect shape-rendering="optimizeSpeed"  x="81" y="61" width="4" height="4" fill="black" />
<rect shape-rendering="optimizeSpeed"  x="93" y="61" width="4" height="4" fill="black" />
<rect shape-rendering="optimizeSpeed"  x="109" y="61" width="4" height="4" fill="black" />
<rect shape-rendering="optimizeSpeed"  x="113" y="61" width="4" height="4" fill="black" />
<rect shape-rendering="optimizeSpeed"  x="129" y="61" width="4" height="4" fill="black" />
<rect shape-rendering="optimizeSpeed"  x="21" y="65" width="4" height="4" fill="black" />
<rect shape-rendering="optimizeSpeed"  x="25" y="65" width="4" height="4" fill="black" />
<rect shape-rendering="optimizeSpeed"  x="33" y="65" width="4" height="4" fill="black" />
<rect shape-rendering="optimizeSpeed"  x="41" y="65" width="4" height="4" fill="black" />
<rect shape-rendering="optimizeSpeed"  x="45" y="65" width="4" height="4" fill="black" />
<rect shape-rendering="optimizeSpeed"  x="49" y="65" width="4" height="4" fill="black" />
<rect shape-rendering="optimizeSpeed"  x="53" y="65" width="4" height="4" fill="black" />
<rect shape-rendering="optimizeSpeed"  x="61" y="65" width="4" height="4" fill="black" />
<rect shape-rendering="optimizeSpeed"  x="69" y="65" width="4" height="4" fill="black" />
<rect shape-rendering="optimizeSpeed"  x="73" y="65" width="4" height="4" fill="black" />
<rect shape-rendering="optimizeSpeed"  x="77" y="65" width="4" height="4" fill="black" />
<rect shape-rendering="optimizeSpeed"  x="81" y="65" width="4" height="4" fill="black" />
<rect shape-rendering="optimizeSpeed"  x="85" y="65" width="4" height="4" fill="black" />
<rect shape-rendering="optimizeSpeed"  x="93" y="65" width="4" height="4" fill="black" />
<rect shape-rendering="optimizeSpeed"  x="117" y="65" width="4" height="4" fill="black" />
<rect shape-rendering="optimizeSpeed"  x="121" y="65" width="4" height="4" fill="black" />
<rect shape-rendering="optimizeSpeed"  x="17" y="69" width="4" height="4" fill="black" />
<rect shape-rendering="optimizeSpeed"  x="21" y="69" width="4" height="4" fill="black" />
<rect shape-rendering="optimizeSpeed"  x="37" y="69" width="4" height="4" fill="black" />
<rect shape-rendering="optimizeSpeed"  x="45" y="69" width="4" height="4" fill="black" />
<rect shape-rendering="optimizeSpeed"  x="49" y="69" width="4" height="4" fill="black" />
<rect shape-rendering="optimizeSpeed"  x="53" y="69" width="4" height="4" fill="black" />
<rect shape-rendering="optimizeSpeed"  x="57" y="69" width="4" height="4" fill="black" />
<rect shape-rendering="optimizeSpeed"  x="61" y="69" width="4" height="4" fill="black" />
<rect shape-rendering="optimizeSpeed"  x="73" y="69" width="4" height="4" fill="black" />
<rect shape-rendering="optimizeSpeed"  x="77" y="69" width="4" height="4" fill="black" />
<rect shape-rendering="optimizeSpeed"  x="81" y="69" width="4" height="4" fill="black" />
<rect shape-rendering="optimizeSpeed"  x="93" y="69" width="4" height="4" fill="black" />
<rect shape-rendering="optimizeSpeed"  x="105" y="69" width="4" height="4" fill="black" />
<rect shape-rendering="optimizeSpeed"  x="109" y="69" width="4" height="4" fill="black" />
<rect shape-rendering="optimizeSpeed"  x="121" y="69" width="4" height="4" fill="black" />
<rect shape-rendering="optimizeSpeed"  x="125" y="69" width="4" height="4" fill="black" />
<rect shape-rendering="optimizeSpeed"  x="129" y="69" width="4" height="4" fill="black" />
<rect shape-rendering="optimizeSpeed"  x="21" y="73" width="4" height="4" fill="black" />
<rect shape-rendering="optimizeSpeed"  x="33" y="73" width="4" height="4" fill="black" />
<rect shape-rendering="optimizeSpeed"  x="37" y="73" width="4" height="4" fill="black" />
<rect shape-rendering="optimizeSpeed"  x="41" y="73" width="4" height="4" fill="black" />
<rect shape-rendering="optimizeSpeed"  x="57" y="73" width="4" height="4" fill="black" />
<rect shape-rendering="optimizeSpeed"  x="65" y="73" width="4" height="4" fill="black" />
<rect shape-rendering="optimizeSpeed"  x="69" y="73" width="4" height="4" fill="black" />
<rect shape-rendering="optimizeSpeed"  x="73" y="73" width="4" height="4" fill="black" />
<rect shape-rendering="optimizeSpeed"  x="93" y="73" width="4" height="4" fill="black" />
<rect shape-rendering="optimizeSpeed"  x="97" y="73" width="4" height="4" fill="black" />
<rect shape-rendering="optimizeSpeed"  x="105" y="73" width="4" height="4" fill="black" />
<rect shape-rendering="optimizeSpeed"  x="109" y="73" width="4" height="4" fill="black" />
<rect shape-rendering="optimizeSpeed"  x="113" y="73" width="4" height="4" fill="black" />
<rect shape-rendering="optimizeSpeed"  x="121" y="73" width="4" height="4" fill="black" />
<rect shape-rendering="optimizeSpeed"  x="125" y="73" width="4" height="4" fill="black" />
<rect shape-rendering="optimizeSpeed"  x="129" y="73" width="4" height="4" fill="black" />
<rect shape-rendering="optimizeSpeed"  x="17" y="77" width="4" height="4" fill="black" />
<rect shape-rendering="optimizeSpeed"  x="33" y="77" width="4" height="4" fill="black" />
<rect shape-rendering="optimizeSpeed"  x="37" y="77" width="4" height="4" fill="black" />
<rect shape-rendering="optimizeSpeed"  x="49" y="77" width="4" height="4" fill="black" />
<rect shape-rendering="optimizeSpeed"  x="57" y="77" width="4" height="4" fill="black" />
<rect shape-rendering="optimizeSpeed"  x="65" y="77" width="4" height="4" fill="black" />
<rect shape-rendering="optimizeSpeed"  x="77" y="77" width="4" height="4" fill="black" />
<rect shape-rendering="optimizeSpeed"  x="81" y="77" width="4" height="4" fill="black" />
<rect shape-rendering="optimizeSpeed"  x="93" y="77" width="4" height="4" fill="black" />
<rect shape-rendering="optimizeSpeed"  x="97" y="77" width="4" height="4" fill="black" />
<rect shape-rendering="optimizeSpeed"  x="109" y="77" width="4" height="4" fill="black" />
<rect shape-rendering="optimizeSpeed"  x="113" y="77" width="4" height="4" fill="black" />
<rect shape-rendering="optimizeSpeed"  x="125" y="77" width="4" height="4" fill="black" />
<rect shape-rendering="optimizeSpeed"  x="21" y="81" width="4" height="4" fill="black" />
<rect shape-rendering="optimizeSpeed"  x="25" y="81" width="4" height="4" fill="black" />
<rect shape-rendering="optimizeSpeed"  x="29" y="81" width="4" height="4" fill="black" />
<rect shape-rendering="optimizeSpeed"  x="37" y="81" width="4" height="4" fill="black" />
<rect shape-rendering="optimizeSpeed"  x="41" y="81" width="4" height="4" fill="black" />
<rect shape-rendering="optimizeSpeed"  x="45" y="81" width="4" height="4" fill="black" />
<rect shape-rendering="optimizeSpeed"  x="49" y="81" width="4" height="4" fill="black" />
<rect shape-rendering="optimizeSpeed"  x="57" y="81" width="4" height="4" fill="black" />
<rect shape-rendering="optimizeSpeed"  x="61" y="81" width="4" height="4" fill="black" />
<rect shape-rendering="optimizeSpeed"  x="69" y="81" width="4" height="4" fill="black" />
<rect shape-rendering="optimizeSpeed"  x="89" y="81" width="4" height="4" fill="black" />
<rect shape-rendering="optimizeSpeed"  x="93" y="81" width="4" height="4" fill="black" />
<rect shape-rendering="optimizeSpeed"  x="97" y="81" width="4" height="4" fill="black" />
<rect shape-rendering="optimizeSpeed"  x="101" y="81" width="4" height="4" fill="black" />
<rect shape-rendering="optimizeSpeed"  x="113" y="81" width="4" height="4" fill="black" />
<rect shape-rendering="optimizeSpeed"  x="117" y="81" width="4" height="4" fill="black" />
<rect shape-rendering="optimizeSpeed"  x="125" y="81" width="4" height="4" fill="black" />
<rect shape-rendering="optimizeSpeed"  x="33" y="85" width="4" height="4" fill="black" />
<rect shape-rendering="optimizeSpeed"  x="45" y="85" width="4" height="4" fill="black" />
<rect shape-rendering="optimizeSpeed"  x="49" y="85" width="4" height="4" fill="black" />
<rect shape-rendering="optimizeSpeed"  x="53" y="85" width="4" height="4" fill="black" />
<rect shape-rendering="optimizeSpeed"  x="57" y="85" width="4" height="4" fill="black" />
<rect shape-rendering="optimizeSpeed"  x="65" y="85" width="4" height="4" fill="black" />
<rect shape-rendering="optimizeSpeed"  x="69" y="85" width="4" height="4" fill="black" />
<rect shape-rendering="optimizeSpeed"  x="77" y="85" width="4" height="4" fill="black" />
<rect shape-rendering="optimizeSpeed"  x="85" y="85" width="4" height="4" fill="black" />
<rect shape-rendering="optimizeSpeed"  x="97" y="85" width="4" height="4" fill="black" />
<rect shape-rendering="optimizeSpeed"  x="109" y="85" width="4" height="4" fill="black" />
<rect shape-rendering="optimizeSpeed"  x="117" y="85" width="4" height="4" fill="black" />
<rect shape-rendering="optimizeSpeed"  x="121" y="85" width="4" height="4" fill="black" />
<rect shape-rendering="optimizeSpeed"  x="125" y="85" width="4" height="4" fill="black" />
<rect shape-rendering="optimizeSpeed"  x="17" y="89" width="4" height="4" fill="black" />
<rect shape-rendering="optimizeSpeed"  x="33" y="89" width="4" height="4" fill="black" />
<rect shape-rendering="optimizeSpeed"  x="41" y="89" width="4" height="4" fill="black" />
<rect shape-rendering="optimizeSpeed"  x="45" y="89" width="4" height="4" fill="black" />
<rect shape-rendering="optimizeSpeed"  x="53" y="89" width="4" height="4" fill="black" />
<rect shape-rendering="optimizeSpeed"  x="57" y="89" width="4" height="4" fill="black" />
<rect shape-rendering="optimizeSpeed"  x="61" y="89" width="4" height="4" fill="black" />
<rect shape-rendering="optimizeSpeed"  x="65" y="89" width="4" height="4" fill="black" />
<rect shape-rendering="optimizeSpeed"  x="69" y="89" width="4" height="4" fill="black" />
<rect shape-rendering="optimizeSpeed"  x="73" y="89" width="4" height="4" fill="black" />
<rect shape-rendering="optimizeSpeed"  x="77" y="89" width="4" height="4" fill="black" />
<rect shape-rendering="optimizeSpeed"  x="85" y="89" width="4" height="4" fill="black" />
<rect shape-rendering="optimizeSpeed"  x="105" y="89" width="4" height="4" fill="black" />
<rect shape-rendering="optimizeSpeed"  x="109" y="89" width="4" height="4" fill="black" />
<rect shape-rendering="optimizeSpeed"  x="121" y="89" width="4" height="4" fill="black" />
<rect shape-rendering="optimizeSpeed"  x="29" y="93" width="4" height="4" fill="black" />
<rect shape-rendering="optimizeSpeed"  x="37" y="93" width="4" height="4" fill="black" />
<rect shape-rendering="optimizeSpeed"  x="45" y="93" width="4" height="4" fill="black" />
<rect shape-rendering="optimizeSpeed"  x="65" y="93" width="4" height="4" fill="black" />
<rect shape-rendering="optimizeSpeed"  x="73" y="93" width="4" height="4" fill="black" />
<rect shape-rendering="optimizeSpeed"  x="77" y="93" width="4" height="4" fill="black" />
<rect shape-rendering="optimizeSpeed"  x="85" y="93" width="4" height="4" fill="black" />
<rect shape-rendering="optimizeSpeed"  x="89" y="93" width="4" height="4" fill="black" />
<rect shape-rendering="optimizeSpeed"  x="93" y="93" width="4" height="4" fill="black" />
<rect shape-rendering="optimizeSpeed"  x="97" y="93" width="4" height="4" fill="black" />
<rect shape-rendering="optimizeSpeed"  x="101" y="93" width="4" height="4" fill="black" />
<rect shape-rendering="optimizeSpeed"  x="121" y="93" width="4" height="4" fill="black" />
<rect shape-rendering="optimizeSpeed"  x="21" y="97" width="4" height="4" fill="black" />
<rect shape-rendering="optimizeSpeed"  x="41" y="97" width="4" height="4" fill="black" />
<rect shape-rendering="optimizeSpeed"  x="53" y="97" width="4" height="4" fill="black" />
<rect shape-rendering="optimizeSpeed"  x="57" y="97" width="4" height="4" fill="black" />
<rect shape-rendering="optimizeSpeed"  x="61" y="97" width="4" height="4" fill="black" />
<rect shape-rendering="optimizeSpeed"  x="65" y="97" width="4" height="4" fill="black" />
<rect shape-rendering="optimizeSpeed"  x="69" y="97" width="4" height="4" fill="black" />
<rect shape-rendering="optimizeSpeed"  x="85" y="97" width="4" height="4" fill="black" />
<rect shape-rendering="optimizeSpeed"  x="97" y="97" width="4" height="4" fill="black" />
<rect shape-rendering="optimizeSpeed"  x="101" y="97" width="4" height="4" fill="black" />
<rect shape-rendering="optimizeSpeed"  x="105" y="97" width="4" height="4" fill="black" />
<rect shape-rendering="optimizeSpeed"  x="109" y="97" width="4" height="4" fill="black" />
<rect shape-rendering="optimizeSpeed"  x="113" y="97" width="4" height="4" fill="black" />
<rect shape-rendering="optimizeSpeed"  x="117" y="97" width="4" height="4" fill="black" />
<rect shape-rendering="optimizeSpeed"  x="121" y="97" width="4" height="4" fill="black" />
<rect shape-rendering="optimizeSpeed"  x="49" y="101" width="4" height="4" fill="black" />
<rect shape-rendering="optimizeSpeed"  x="53" y="101" width="4" height="4" fill="black" />
<rect shape-rendering="optimizeSpeed"  x="57" y="101" width="4" height="4" fill="black" />
<rect shape-rendering="optimizeSpeed"  x="65" y="101" width="4" height="4" fill="black" />
<rect shape-rendering="optimizeSpeed"  x="69" y="101" width="4" height="4" fill="black" />
<rect shape-rendering="optimizeSpeed"  x="77" y="101" width="4" height="4" fill="black" />
<rect shape-rendering="optimizeSpeed"  x="81" y="101" width="4" height="4" fill="black" />
<rect shape-rendering="optimizeSpeed"  x="85" y="101" width="4" height="4" fill="black" />
<rect shape-rendering="optimizeSpeed"  x="89" y="101" width="4" height="4" fill="black" />
<rect shape-rendering="optimizeSpeed"  x="97" y="101" width="4" height="4" fill="black" />
<rect shape-rendering="optimizeSpeed"  x="113" y="101" width="4" height="4" fill="black" />
<rect shape-rendering="optimizeSpeed"  x="117" y="101" width="4" height="4" fill="black" />
<rect shape-rendering="optimizeSpeed"  x="121" y="101" width="4" height="4" fill="black" />
<rect shape-rendering="optimizeSpeed"  x="125" y="101" width="4" height="4" fill="black" />
<rect shape-rendering="optimizeSpeed"  x="129" y="101" width="4" height="4" fill="black" />
<rect shape-rendering="optimizeSpeed"  x="17" y="105" width="4" height="4" fill="black" />
<rect shape-rendering="optimizeSpeed"  x="21" y="105" width="4" height="4" fill="black" />
<rect shape-rendering="optimizeSpeed"  x="25" y="105" width="4" height="4" fill="black" />
<rect shape-rendering="optimizeSpeed"  x="29" y="105" width="4" height="4" fill="black" />
<rect shape-rendering="optimizeSpeed"  x="33" y="105" width="4" height="4" fill="black" />
<rect shape-rendering="optimizeSpeed"  x="37" y="105" width="4" height="4" fill="black" />
<rect shape-rendering="optimizeSpeed"  x="41" y="105" width="4" height="4" fill="black" />
<rect shape-rendering="optimizeSpeed"  x="53" y="105" width="4" height="4" fill="black" />
<rect shape-rendering="optimizeSpeed"  x="61" y="105" width="4" height="4" fill="black" />
<rect shape-rendering="optimizeSpeed"  x="65" y="105" width="4" height="4" fill="black" />
<rect shape-rendering="optimizeSpeed"  x="69" y="105" width="4" height="4" fill="black" />
<rect shape-rendering="optimizeSpeed"  x="81" y="105" width="4" height="4" fill="black" />
<rect shape-rendering="optimizeSpeed"  x="89" y="105" width="4" height="4" fill="black" />
<rect shape-rendering="optimizeSpeed"  x="93" y="105" width="4" height="4" fill="black" />
<rect shape-rendering="optimizeSpeed"  x="97" y="105" width="4" height="4" fill="black" />
<rect shape-rendering="optimizeSpeed"  x="105" y="105" width="4" height="4" fill="black" />
<rect shape-rendering="optimizeSpeed"  x="113" y="105" width="4" height="4" fill="black" />
<rect shape-rendering="optimizeSpeed"  x="117" y="105" width="4" height="4" fill="black" />
<rect shape-rendering="optimizeSpeed"  x="125" y="105" width="4" height="4" fill="black" />
<rect shape-rendering="optimizeSpeed"  x="17" y="109" width="4" height="4" fill="black" />
<rect shape-rendering="optimizeSpeed"  x="41" y="109" width="4" height="4" fill="black" />
<rect shape-rendering="optimizeSpeed"  x="57" y="109" width="4" height="4" fill="black" />
<rect shape-rendering="optimizeSpeed"  x="77" y="109" width="4" height="4" fill="black" />
<rect shape-rendering="optimizeSpeed"  x="89" y="109" width="4" height="4" fill="black" />
<rect shape-rendering="optimizeSpeed"  x="97" y="109" width="4" height="4" fill="black" />
<rect shape-rendering="optimizeSpeed"  x="113" y="109" width="4" height="4" fill="black" />
<rect shape-rendering="optimizeSpeed"  x="117" y="109" width="4" height="4" fill="black" />
<rect shape-rendering="optimizeSpeed"  x="125" y="109" width="4" height="4" fill="black" />
<rect shape-rendering="optimizeSpeed"  x="129" y="109" width="4" height="4" fill="black" />
<rect shape-rendering="optimizeSpeed"  x="17" y="113" width="4" height="4" fill="black" />
<rect shape-rendering="optimizeSpeed"  x="25" y="113" width="4" height="4" fill="black" />
<rect shape-rendering="optimizeSpeed"  x="29" y="113" width="4" height="4" fill="black" />
<rect shape-rendering="optimizeSpeed"  x="33" y="113" width="4" height="4" fill="black" />
<rect shape-rendering="optimizeSpeed"  x="41" y="113" width="4" height="4" fill="black" />
<rect shape-rendering="optimizeSpeed"  x="53" y="113" width="4" height="4" fill="black" />
<rect shape-rendering="optimizeSpeed"  x="65" y="113" width="4" height="4" fill="black" />
<rect shape-rendering="optimizeSpeed"  x="73" y="113" width="4" height="4" fill="black" />
<rect shape-rendering="optimizeSpeed"  x="81" y="113" width="4" height="4" fill="black" />
<rect shape-rendering="optimizeSpeed"  x="97" y="113" width="4" height="4" fill="black" />
<rect shape-rendering="optimizeSpeed"  x="101" y="113" width="4" height="4" fill="black" />
<rect shape-rendering="optimizeSpeed"  x="105" y="113" width="4" height="4" fill="black" />
<rect shape-rendering="optimizeSpeed"  x="109" y="113" width="4" height="4" fill="black" />
<rect shape-rendering="optimizeSpeed"  x="113" y="113" width="4" height="4" fill="black" />
<rect shape-rendering="optimizeSpeed"  x="121" y="113" width="4" height="4" fill="black" />
<rect shape-rendering="optimizeSpeed"  x="125" y="113" width="4" height="4" fill="black" />
<rect shape-rendering="optimizeSpeed"  x="129" y="113" width="4" height="4" fill="black" />
<rect shape-rendering="optimizeSpeed"  x="17" y="117" width="4" height="4" fill="black" />
<rect shape-rendering="optimizeSpeed"  x="25" y="117" width="4" height="4" fill="black" />
<rect shape-rendering="optimizeSpeed"  x="29" y="117" width="4" height="4" fill="black" />
<rect shape-rendering="optimizeSpeed"  x="33" y="117" width="4" height="4" fill="black" />
<rect shape-rendering="optimizeSpeed"  x="41" y="117" width="4" height="4" fill="black" />
<rect shape-rendering="optimizeSpeed"  x="49" y="117" width="4" height="4" fill="black" />
<rect shape-rendering="optimizeSpeed"  x="57" y="117" width="4" height="4" fill="black" />
<rect shape-rendering="optimizeSpeed"  x="61" y="117" width="4" height="4" fill="black" />
<rect shape-rendering="optimizeSpeed"  x="65" y="117" width="4" height="4" fill="black" />
<rect shape-rendering="optimizeSpeed"  x="73" y="117" width="4" height="4" fill="black" />
<rect shape-rendering="optimizeSpeed"  x="81" y="117" width="4" height="4" fill="black" />
<rect shape-rendering="optimizeSpeed"  x="93" y="117" width="4" height="4" fill="black" />
<rect shape-rendering="optimizeSpeed"  x="101" y="117" width="4" height="4" fill="black" />
<rect shape-rendering="optimizeSpeed"  x="113" y="117" width="4" height="4" fill="black" />
<rect shape-rendering="optimizeSpeed"  x="117" y="117" width="4" height="4" fill="black" />
<rect shape-rendering="optimizeSpeed"  x="129" y="117" width="4" height="4" fill="black" />
<rect shape-rendering="optimizeSpeed"  x="17" y="121" width="4" height="4" fill="black" />
<rect shape-rendering="optimizeSpeed"  x="25" y="121" width="4" height="4" fill="black" />
<rect shape-rendering="optimizeSpeed"  x="29" y="121" width="4" height="4" fill="black" />
<rect shape-rendering="optimizeSpeed"  x="33" y="121" width="4" height="4" fill="black" />
<rect shape-rendering="optimizeSpeed"  x="41" y="121" width="4" height="4" fill="black" />
<rect shape-rendering="optimizeSpeed"  x="49" y="121" width="4" height="4" fill="black" />
<rect shape-rendering="optimizeSpeed"  x="53" y="121" width="4" height="4" fill="black" />
<rect shape-rendering="optimizeSpeed"  x="61" y="121" width="4" height="4" fill="black" />
<rect shape-rendering="optimizeSpeed"  x="69" y="121" width="4" height="4" fill="black" />
<rect shape-rendering="optimizeSpeed"  x="81" y="121" width="4" height="4" fill="black" />
<rect shape-rendering="optimizeSpeed"  x="85" y="121" width="4" height="4" fill="black" />
<rect shape-rendering="optimizeSpeed"  x="93" y="121" width="4" height="4" fill="black" />
<rect shape-rendering="optimizeSpeed"  x="109" y="121" width="4" height="4" fill="black" />
<rect shape-rendering="optimizeSpeed"  x="121" y="121" width="4" height="4" fill="black" />
<rect shape-rendering="optimizeSpeed"  x="129" y="121" width="4" height="4" fill="black" />
<rect shape-rendering="optimizeSpeed"  x="17" y="125" width="4" height="4" fill="black" />
<rect shape-rendering="optimizeSpeed"  x="41" y="125" width="4" height="4" fill="black" />
<rect shape-rendering="optimizeSpeed"  x="49" y="125" width="4" height="4" fill="black" />
<rect shape-rendering="optimizeSpeed"  x="53" y="125" width="4" height="4" fill="black" />
<rect shape-rendering="optimizeSpeed"  x="57" y="125" width="4" height="4" fill="black" />
<rect shape-rendering="optimizeSpeed"  x="61" y="125" width="4" height="4" fill="black" />
<rect shape-rendering="optimizeSpeed"  x="73" y="125" width="4" height="4" fill="black" />
<rect shape-rendering="optimizeSpeed"  x="89" y="125" width="4" height="4" fill="black" />
<rect shape-rendering="optimizeSpeed"  x="93" y="125" width="4" height="4" fill="black" />
<rect shape-rendering="optimizeSpeed"  x="97" y="125" width="4" height="4" fill="black" />
<rect shape-rendering="optimizeSpeed"  x="109" y="125" width="4" height="4" fill="black" />
<rect shape-rendering="optimizeSpeed"  x="117" y="125" width="4" height="4" fill="black" />
<rect shape-rendering="optimizeSpeed"  x="125" y="125" width="4" height="4" fill="black" />
<rect shape-rendering="optimizeSpeed"  x="17" y="129" width="4" height="4" fill="black" />
<rect shape-rendering="optimizeSpeed"  x="21" y="129" width="4" height="4" fill="black" />
<rect shape-rendering="optimizeSpeed"  x="25" y="129" width="4" height="4" fill="black" />
<rect shape-rendering="optimizeSpeed"  x="29" y="129" width="4" height="4" fill="black" />
<rect shape-rendering="optimizeSpeed"  x="33" y="129" width="4" height="4" fill="black" />
<rect shape-rendering="optimizeSpeed"  x="37" y="129" width="4" height="4" fill="black" />
<rect shape-rendering="optimizeSpeed"  x="41" y="129" width="4" height="4" fill="black" />
<rect shape-rendering="optimizeSpeed"  x="49" y="129" width="4" height="4" fill="black" />
<rect shape-rendering="optimizeSpeed"  x="53" y="129" width="4" height="4" fill="black" />
<rect shape-rendering="optimizeSpeed"  x="65" y="129" width="4" height="4" fill="black" />
<rect shape-rendering="optimizeSpeed"  x="73" y="129" width="4" height="4" fill="black" />
<rect shape-rendering="optimizeSpeed"  x="77" y="129" width="4" height="4" fill="black" />
<rect shape-rendering="optimizeSpeed"  x="85" y="129" width="4" height="4" fill="black" />
<rect shape-rendering="optimizeSpeed"  x="89" y="129" width="4" height="4" fill="black" />
<rect shape-rendering="optimizeSpeed"  x="93" y="129" width="4" height="4" fill="black" />
<rect shape-rendering="optimizeSpeed"  x="97" y="129" width="4" height="4" fill="black" />
<rect shape-rendering="optimizeSpeed"  x="101" y="129" width="4" height="4" fill="black" />
<rect shape-rendering="optimizeSpeed"  x="117" y="129" width="4" height="4" fill="black" />
<rect shape-rendering="optimizeSpeed"  x="125" y="129" width="4" height="4" fill="black" /></svg>